# xmcd
#
# Track frame offsets:
#	150
#	15013
#	27788
#	41250
#	51810
#	63139
#	74750
#	86749
#	97060
#	107401
#
# Disc length: 1578 seconds
#
# Revision: 3
# Processed by: cddbd v1.5.1PL2 Copyright (c) Steve Scherf et al.
# Submitted via: audiograbber 1.83.01
#
DISCID=7306280a
DTITLE=Various Artist - Country's Greatest Hits Disc 2
DYEAR=2001
DGENRE=Country
TTITLE0=Jeannie C. Riley - Harper Valley P.T.A.
TTITLE1=Claude King - Wolverton Mountain
TTITLE2=David Houston - Almost Persuaded
TTITLE3=Johnny Russell - Act Naturally
TTITLE4=Kitty Wells - It Wasn't God Who Made Honky Tonk Angels
TTITLE5=Henson Cargill - Skip A Rope
TTITLE6=Wanda Jackson - Right or Wrong
TTITLE7=Dave Dudley - Six Days on the Road
TTITLE8=George Hamilton IV - Abilene
TTITLE9=Little Jimmy Dickens - May The Bird of Paradise Fly Up Your Nose
EXTD=
EXTT0=
EXTT1=
EXTT2=
EXTT3=
EXTT4=
EXTT5=
EXTT6=
EXTT7=
EXTT8=
EXTT9=
PLAYORDER=
